PathFileType	4	(X/Y/Z)	E:\Qualisys_Data\Carbon_Farble_Plate\Data\Amateur_Runner\S14\T2\S14T2V23_c3d.trc
DataRate	CameraRate	NumFrames	NumMarkers	Units	OrigDataRate	OrigDataStartFrame	OrigNumFrames
200.000000	200.000000	4	39	mm	200.000000	206	330
Frame#	Time	LSHO			RSHO			LICST			RICST			LASIS			LHEEL			RASIS			LTROC			RTROC			SACR			LTH1			LSK4			LTH2			LTH3			RHM5			LSK2			LTH4			RTH1			LTOE			RTH2			RTH3			RTH4			LLEP			RLEP			LSK1			LSK3			RSK1			LHM5			RSK2			LFT1			RSK3			RSK4			LLME			RLME			RTOE			RHEEL			RFT1			RFT2			LFT2			
		X1	Y1	Z1	X2	Y2	Z2	X3	Y3	Z3	X4	Y4	Z4	X5	Y5	Z5	X6	Y6	Z6	X7	Y7	Z7	X8	Y8	Z8	X9	Y9	Z9	X10	Y10	Z10	X11	Y11	Z11	X12	Y12	Z12	X13	Y13	Z13	X14	Y14	Z14	X15	Y15	Z15	X16	Y16	Z16	X17	Y17	Z17	X18	Y18	Z18	X19	Y19	Z19	X20	Y20	Z20	X21	Y21	Z21	X22	Y22	Z22	X23	Y23	Z23	X24	Y24	Z24	X25	Y25	Z25	X26	Y26	Z26	X27	Y27	Z27	X28	Y28	Z28	X29	Y29	Z29	X30	Y30	Z30	X31	Y31	Z31	X32	Y32	Z32	X33	Y33	Z33	X34	Y34	Z34	X35	Y35	Z35	X36	Y36	Z36	X37	Y37	Z37	X38	Y38	Z38	X39	Y39	Z39	

207	1.03	511.1130676269531	1403.606079101562	-565.8357543945312	598.228271484375	1398.935668945312	-275.9026794433594	492.5868225097656	950.4147338867188	-542.6135864257812	564.6806030273438	954.6100463867188	-274.28955078125	541.733154296875	903.3628540039062	-526.8237915039062	318.360595703125	318.178955078125	-439.2658386230469	588.1358032226562	912.3663940429688	-296.3876953125	426.8126831054688	821.6700439453125	-552.4798583984375	457.8712768554688	831.7377319335938	-221.7373352050781	390.1397094726562	946.763916015625	-388.5253601074219	614.596923828125	655.29443359375	-575.4818115234375	490.7678527832031	424.7901916503906	-531.916015625	554.3859252929688	613.6664428710938	-548.029052734375	678.1273193359375	578.433837890625	-560.7315673828125	340.9208068847656	57.20938873291016	-278.8101806640625	569.6529541015625	480.6353149414062	-553.7525024414062	612.635498046875	536.9567260742188	-537.5894775390625	589.2666625976562	609.9067993164062	-253.3204956054688	477.5290222167969	118.5220794677734	-485.9604187011719	513.44580078125	612.4094848632812	-234.8422393798828	584.6441040039062	514.1952514648438	-285.8182373046875	504.7027893066406	513.7132568359375	-260.7981567382812	658.630859375	506.10693359375	-557.0794677734375	520.9481201171875	440.2734680175781	-274.65966796875	618.96826171875	415.5030517578125	-548.4152221679688	537.2462158203125	357.74951171875	-527.946044921875	473.8183288574219	326.0781555175781	-278.7707824707031	416.6873168945312	161.9569244384766	-543.01708984375	405.1269836425781	375.43505859375	-265.6264953613281	302.9210815429688	290.7769775390625	-418.6709289550781	405.8877563476562	249.3994903564453	-296.2301025390625	347.3854675292969	300.4351806640625	-281.9710388183594	376.2064208984375	295.5568542480469	-506.068359375	258.2366943359375	153.4988250732422	-308.3189392089844	413.97216796875	46.40673065185547	-343.8643188476562	185.8573913574219	149.852294921875	-362.5787048339844	188.6378173828125	116.7111434936523	-390.2206420898438	177.2117919921875	126.382194519043	-335.6249694824219	295.3565368652344	298.0994567871094	-473.70751953125
208	1.035	527.8361206054688	1407.380126953125	-566.4352416992188	619.0745849609375	1402.707885742188	-277.95947265625	513.7280883789062	954.7188110351562	-542.7623901367188	585.3131713867188	957.852783203125	-275.4403686523438	562.7678833007812	908.2717895507812	-527.4561157226562	351.6661682128906	309.0946350097656	-440.6670532226562	608.5401611328125	915.8572387695312	-297.1846313476562	448.3406372070312	826.8729858398438	-554.5392456054688	478.0755310058594	835.3705444335938	-221.9702606201172	410.7216186523438	950.7078857421876	-389.049560546875	638.8882446289062	662.4093627929688	-574.8601684570312	519.9157104492188	423.3094787597656	-532.3432006835938	579.064697265625	619.6309814453125	-549.2451782226562	703.5249633789062	586.805908203125	-559.35791015625	342.3186340332031	57.26641845703125	-277.9580383300781	596.5770263671875	482.5390625	-553.3323364257812	638.6216430664062	543.9051513671875	-537.9873657226562	603.2725830078125	611.9700317382812	-253.9432525634766	520.4356689453125	117.2708435058594	-486.3362121582031	528.0933837890625	615.5941772460938	-236.2067260742188	596.7320556640625	515.9659423828125	-286.0951538085938	516.6341552734375	517.322265625	-261.4773559570312	685.6102294921875	512.506103515625	-555.503173828125	530.9715576171875	443.0442810058594	-275.3216552734375	649.383056640625	419.705078125	-547.6451416015625	569.4835815429688	358.7201232910156	-527.6429443359375	482.394775390625	329.9332275390625	-277.8132629394531	458.4358520507812	157.9877777099609	-543.6567993164062	413.9282531738281	380.5399169921875	-264.9430541992188	337.1634826660156	280.93115234375	-420.1864013671875	413.1696472167969	254.1544036865234	-294.6359558105469	355.2409057617188	306.0586853027344	-280.3348388671875	410.8170166015625	289.1468200683594	-507.3526000976562	264.11279296875	159.4168701171875	-306.7407836914062	414.6093444824219	45.98319625854492	-343.3278503417969	191.5966339111328	156.8845367431641	-361.5768432617188	193.5818328857422	124.7710189819336	-389.9020080566406	182.33984375	133.3354187011719	-334.4169616699219	330.0838012695312	287.7822875976562	-474.9071350097656
209	1.04	544.7098388671875	1411.495239257812	-567.1339721679688	639.7119750976562	1406.642822265625	-280.1951904296875	533.2960815429688	959.5281372070312	-543.7936401367188	606.0855712890625	961.4029541015624	-276.2390747070312	582.12646484375	912.399658203125	-527.7174682617188	384.92626953125	299.50439453125	-441.8050537109375	629.1981811523438	919.5681762695312	-298.3325805664062	470.0708312988281	832.3872680664062	-556.8905639648438	498.0714416503906	839.0462646484375	-222.4936981201172	431.2705078125	953.9537963867188	-390.1759643554688	662.9266357421875	669.2761840820312	-574.070556640625	549.461181640625	421.3311157226562	-532.1234741210938	603.026123046875	625.396728515625	-549.9806518554688	728.328125	594.5560913085938	-557.7371215820312	344.1700439453125	58.35018539428711	-277.1585998535156	622.9442749023438	484.16748046875	-553.2572631835938	663.3470458984375	550.8557739257812	-538.2620239257812	617.6590576171875	613.6491088867188	-255.0706176757812	563.4610595703125	116.65966796875	-487.1340942382812	542.4773559570312	618.8340454101562	-237.4368286132812	608.9722290039062	517.7242431640625	-286.9097595214844	528.773681640625	520.8975830078125	-261.6124267578125	711.9585571289062	518.385986328125	-554.68603515625	540.7018432617188	446.9748840332031	-274.5101928710938	678.5925903320312	423.31494140625	-546.8280639648438	601.8860473632812	358.6340026855469	-527.7587280273438	490.5912475585938	333.9833679199219	-276.9456176757812	499.4307556152344	154.2735137939453	-544.8970336914062	423.4046020507812	385.3759765625	-264.34130859375	372.1336364746094	270.8009643554688	-422.1421508789062	420.2490844726562	258.7408142089844	-293.0765380859375	363.3526000976562	311.8315734863281	-279.5124206542969	445.8010864257812	282.9587097167969	-507.7722778320312	270.2304992675781	164.783203125	-305.1514892578125	417.2702026367188	46.41265106201172	-343.5175170898438	200.1342926025391	165.6133270263672	-359.9524536132812	199.3881530761719	132.2725677490234	-387.994873046875	188.0430450439453	140.6783752441406	-333.19189453125	364.866455078125	277.5102844238281	-476.115478515625
210	1.045	561.9208984375	1415.353149414062	-567.4646606445312	660.2470092773438	1410.98828125	-282.3722839355469	553.7686157226562	964.3427124023438	-544.16259765625	626.6408081054688	965.1390991210938	-277.144775390625	602.87158203125	916.9751586914062	-528.704833984375	419.1573181152344	290.2449035644531	-442.7172241210938	649.5196533203125	923.2247314453124	-299.4846801757812	491.6388244628906	837.7830200195312	-558.5089721679688	518.5391235351562	842.8994140625	-222.7656707763672	451.6510009765625	957.709716796875	-390.91455078125	686.4431762695312	675.9491577148438	-573.2026977539062	578.7092895507812	419.6136169433594	-532.2560424804688	626.7496337890625	630.9498901367188	-551.36328125	752.5098876953125	602.0402221679688	-556.619140625	346.5157470703125	59.460205078125	-275.8098754882812	649.6944580078125	485.7147216796875	-552.4624633789062	687.9743041992188	557.3113403320312	-538.6102294921875	632.0657958984375	615.804443359375	-256.1336975097656	606.4998168945312	116.1997146606445	-487.8121032714844	557.5255737304688	622.42333984375	-238.599853515625	620.9124145507812	520.196044921875	-287.2546997070312	541.0872802734375	524.9522094726562	-261.4344787597656	737.801513671875	524.1126098632812	-553.816650390625	551.513671875	450.5692138671875	-274.3350524902344	707.4926147460938	427.7138671875	-545.7340698242188	633.41748046875	359.7615661621094	-527.709716796875	499.1748046875	338.5703735351562	-275.6396484375	540.7742919921875	150.7427673339844	-545.5528564453125	432.7604370117188	390.7254638671875	-263.5474243164062	407.1148376464844	260.6528930664062	-422.9263305664062	427.8901672363281	264.0011901855469	-291.5518493652344	371.8022155761719	317.9425659179688	-278.4353637695312	480.6447143554688	276.4403381347656	-508.3724060058594	277.0845336914062	170.4263916015625	-303.3226623535156	418.641357421875	45.91701126098633	-341.8578796386719	207.7409820556641	173.8895263671875	-358.30419921875	206.1588745117188	140.8655700683594	-386.4728088378906	194.6251525878906	149.4534301757812	-331.0921936035156	399.4267272949219	267.74169921875	-477.5079956054688
